<?xml version="1.0" standalone="no"?>
<!DOCTYPE svg PUBLIC "-//W3C//DTD SVG 20010904//EN"
 "http://www.w3.org/TR/2001/REC-SVG-20010904/DTD/svg10.dtd">
<svg version="1.0" xmlns="http://www.w3.org/2000/svg"
 width="91.000000pt" height="91.000000pt" viewBox="0 0 91.000000 91.000000"
 preserveAspectRatio="xMidYMid meet">
<metadata>
Created by potrace 1.11, written by Peter Selinger 2001-2013
</metadata>
<g transform="translate(0.000000,91.000000) scale(0.100000,-0.100000)"
fill="#000000" stroke="none">
<path d="M403 858 c-53 -56 -131 -186 -213 -353 -101 -207 -108 -228 -87 -249
8 -9 25 -28 37 -43 l21 -26 47 51 c47 50 60 56 119 54 29 -1 75 -35 97 -73 9
-16 21 -29 25 -29 5 0 25 20 46 45 24 30 48 48 69 53 29 6 37 6 70 3 13 -1 56
-39 90 -81 l19 -24 38 45 c21 24 39 48 39 53 0 4 -37 85 -83 180 -129 265
-236 426 -284 426 -10 0 -33 -15 -50 -32z m88 -282 c19 17 20 17 26 -4 6 -25
13 -27 32 -9 11 10 13 7 8 -16 -4 -26 -2 -28 21 -22 22 5 24 4 19 -20 -4 -22
-1 -26 14 -22 15 4 19 0 19 -25 0 -17 4 -27 10 -23 6 3 10 -3 10 -15 0 -12 5
-18 10 -15 6 3 10 1 10 -5 0 -6 7 -18 15 -26 8 -9 15 -20 15 -25 0 -17 -19 -9
-31 13 -16 29 -35 48 -48 48 -6 0 -10 6 -8 13 1 6 -4 11 -11 9 -7 -1 -15 5
-18 13 -5 12 -10 13 -19 5 -10 -8 -15 -6 -20 10 -5 16 -10 19 -18 11 -13 -13
-28 -15 -26 -3 1 4 1 14 0 22 -1 12 -5 11 -17 -5 -12 -16 -18 -18 -34 -7 -26
16 -30 15 -30 -5 0 -13 -3 -14 -12 -5 -17 17 -28 15 -28 -4 0 -10 -6 -13 -19
-9 -12 3 -21 0 -24 -10 -4 -9 -13 -12 -23 -8 -14 5 -16 3 -11 -11 5 -14 3 -17
-8 -12 -9 3 -15 0 -15 -10 0 -8 -4 -13 -9 -10 -5 3 -14 -8 -21 -24 -7 -17 -16
-30 -21 -30 -16 0 -9 30 11 50 11 11 20 29 20 40 0 12 5 17 14 14 10 -4 12 2
8 22 -4 23 -2 25 17 19 18 -5 22 -3 21 12 -4 38 -1 48 12 35 19 -19 31 -14 26
13 -5 25 5 34 17 15 12 -19 25 -10 25 17 0 25 1 25 18 10 25 -23 28 -22 38 16
l8 32 3 -38 c4 -38 5 -39 24 -21z"/>
<path d="M10 256 c0 -8 9 -17 20 -21 10 -3 34 -24 51 -46 18 -23 43 -45 56
-50 33 -12 86 11 109 49 15 26 51 52 71 52 3 0 27 -22 52 -50 25 -27 57 -51
71 -53 33 -6 73 15 95 50 22 33 45 52 63 53 8 0 35 -23 60 -50 40 -43 53 -51
86 -52 34 -1 44 4 68 32 15 19 28 37 28 41 0 4 14 12 30 19 32 13 35 33 7 38
-10 2 -38 -19 -68 -51 -62 -66 -84 -66 -131 -1 -17 24 -36 44 -42 45 -6 0 -22
2 -35 5 -30 5 -64 -16 -87 -55 -10 -17 -31 -35 -47 -41 -27 -9 -32 -7 -63 27
-19 20 -34 40 -34 43 0 4 -11 12 -24 18 -43 19 -75 7 -124 -46 -56 -61 -77
-61 -120 -1 -36 50 -92 77 -92 45z"/>
<path d="M243 109 c-21 -22 -49 -45 -63 -51 -19 -7 -21 -11 -10 -18 20 -12 51
3 97 50 47 46 60 45 105 -9 53 -62 94 -63 149 -1 47 51 78 53 114 6 35 -46 95
-67 95 -34 0 4 -7 8 -15 8 -8 0 -34 20 -58 45 -62 62 -94 62 -152 -1 -49 -54
-76 -55 -110 -5 -42 63 -98 67 -152 10z"/>
</g>
</svg>
