<?xml version="1.0" standalone="no"?>
<!DOCTYPE svg PUBLIC "-//W3C//DTD SVG 20010904//EN"
 "http://www.w3.org/TR/2001/REC-SVG-20010904/DTD/svg10.dtd">
<svg version="1.0" xmlns="http://www.w3.org/2000/svg"
 width="700.000000pt" height="700.000000pt" viewBox="0 0 700.000000 700.000000"
 preserveAspectRatio="xMidYMid meet">
<metadata>
Created by potrace 1.11, written by Peter Selinger 2001-2013
</metadata>
<g transform="translate(0.000000,700.000000) scale(0.100000,-0.100000)"
fill="#000000" stroke="none">
<path d="M3403 6472 c-66 -24 -121 -62 -198 -137 -176 -174 -629 -852 -935
-1400 -12 -22 -41 -74 -65 -115 -23 -41 -72 -131 -108 -200 -36 -69 -84 -159
-106 -200 -45 -83 -461 -916 -461 -923 0 -3 -32 -72 -71 -154 -39 -81 -108
-231 -154 -333 -45 -102 -94 -210 -108 -240 -15 -30 -76 -167 -136 -305 l-110
-250 47 -40 c87 -75 153 -150 283 -322 170 -226 197 -247 264 -202 20 13 98
107 174 209 237 316 385 430 619 479 219 46 444 4 624 -116 107 -70 199 -167
347 -366 160 -214 188 -239 249 -216 35 13 58 40 191 219 181 245 296 353 454
425 109 49 204 69 332 69 141 0 190 -8 294 -47 180 -68 311 -181 495 -431 65
-87 137 -177 159 -200 82 -81 120 -59 278 160 123 170 229 288 317 354 l33 25
-92 205 c-135 304 -216 484 -265 589 -24 51 -44 95 -44 97 0 2 -45 96 -100
209 -55 114 -100 209 -100 211 0 3 -77 159 -171 347 -149 298 -217 428 -422
807 -301 559 -697 1171 -1002 1550 -68 84 -186 188 -250 220 -87 43 -180 51
-262 22z m212 -1815 c34 -102 44 -159 51 -292 6 -108 15 -145 34 -145 12 0
178 166 215 215 15 19 31 35 35 35 12 0 30 -107 36 -210 3 -52 7 -104 9 -115
2 -11 4 -26 4 -32 3 -43 89 25 223 177 l57 65 2 -40 c4 -111 -5 -238 -20 -278
-5 -12 -12 -44 -16 -72 -5 -27 -9 -56 -11 -62 -2 -13 9 -17 36 -13 20 2 117
62 203 123 38 26 72 45 75 42 13 -12 10 -245 -4 -307 -7 -35 -15 -82 -17 -105
-5 -38 -3 -43 14 -43 23 0 86 34 170 91 32 21 62 39 67 39 6 0 12 -17 15 -37
5 -45 1 -229 -6 -258 -18 -69 -27 -112 -27 -127 0 -25 29 -22 71 6 20 14 52
34 72 45 l36 20 -5 -57 c-3 -31 -11 -85 -18 -119 -18 -88 -10 -95 65 -55 34
18 64 30 67 27 9 -8 8 -117 -2 -187 -8 -67 -6 -68 64 -33 l50 25 9 -22 c55
-148 83 -241 78 -260 -9 -35 -45 -68 -73 -68 -18 0 -44 20 -94 73 -72 75 -90
112 -121 258 -18 82 -29 88 -77 45 -21 -20 -41 -36 -44 -36 -2 0 -5 30 -6 68
-8 180 -19 187 -126 75 l-46 -48 -1 30 c0 17 -2 37 -4 46 -1 8 -5 54 -8 102
-4 48 -9 92 -12 97 -13 21 -35 7 -114 -72 -79 -80 -81 -82 -82 -53 0 17 -2 37
-3 45 -2 8 -6 62 -10 119 -4 57 -9 108 -12 113 -14 22 -47 0 -139 -91 -55 -55
-101 -98 -103 -97 -7 8 -22 123 -27 210 -6 112 -16 141 -44 127 -10 -6 -61
-55 -114 -110 -84 -90 -96 -98 -100 -78 -7 25 -18 147 -21 224 -2 61 -15 80
-43 65 -17 -10 -135 -130 -212 -217 l-34 -38 -29 34 c-72 85 -202 209 -218
209 -24 0 -27 -11 -29 -104 -1 -44 -4 -82 -5 -85 -2 -3 -7 -31 -10 -60 -4 -30
-8 -56 -10 -58 -2 -2 -28 24 -57 59 -63 73 -157 165 -182 179 -25 14 -33 -15
-41 -139 -4 -57 -11 -126 -17 -153 l-11 -50 -101 100 c-96 95 -132 118 -142
89 -2 -7 -6 -56 -9 -108 -5 -101 -15 -180 -24 -180 -2 0 -39 34 -80 75 -71 71
-94 86 -106 67 -3 -5 -8 -49 -11 -98 -6 -95 -13 -155 -17 -160 -2 -1 -29 22
-61 52 -31 30 -61 54 -66 54 -16 0 -28 -25 -30 -65 -2 -22 -4 -58 -6 -80 -2
-22 -3 -48 -4 -58 -1 -16 -6 -14 -38 12 -49 40 -69 40 -78 -1 -4 -18 -11 -39
-16 -48 -5 -8 -24 -53 -44 -100 -29 -71 -48 -98 -110 -162 -75 -78 -96 -89
-134 -68 -25 13 -44 62 -37 96 5 31 90 262 99 271 3 3 31 -9 62 -27 46 -26 59
-30 66 -19 5 8 6 22 3 31 -3 10 -7 30 -10 45 -2 16 -7 38 -9 51 -8 35 -16 132
-10 132 2 0 33 -16 69 -35 35 -20 67 -32 70 -27 5 8 3 29 -9 92 -18 94 -25
184 -17 207 2 8 24 -1 62 -27 65 -44 110 -60 110 -39 0 8 -5 32 -10 54 -5 22
-12 54 -15 70 -8 36 -14 235 -8 252 3 8 28 -4 68 -32 92 -65 163 -105 185
-105 25 0 26 23 4 122 -16 70 -24 321 -12 333 3 3 68 -35 143 -85 76 -49 141
-90 144 -90 3 0 12 4 20 9 13 8 11 25 -8 118 -24 111 -38 328 -22 337 5 3 21
-11 37 -32 50 -67 217 -232 235 -232 25 0 26 3 33 115 3 55 9 114 11 130 11
65 27 140 32 147 2 4 27 -20 55 -55 28 -34 85 -97 127 -139 69 -72 102 -91
115 -70 3 5 8 58 11 118 9 163 24 234 77 373 12 33 22 20 53 -72z"/>
<path d="M435 2139 c-59 -34 -74 -109 -30 -154 14 -14 29 -25 33 -25 42 -1
147 -23 178 -37 101 -46 154 -102 319 -335 184 -260 336 -358 555 -360 223 -1
375 102 584 397 54 77 129 169 165 205 84 83 142 112 242 118 127 8 211 -29
316 -138 13 -14 76 -96 140 -184 133 -182 217 -270 312 -326 181 -107 421 -95
591 28 83 61 145 134 338 398 109 149 207 213 339 222 112 7 203 -30 292 -119
31 -31 103 -125 221 -290 109 -153 238 -256 360 -289 78 -21 93 -23 173 -22
219 3 357 100 580 408 170 235 242 293 385 314 88 12 97 16 118 48 32 49 16
110 -38 138 -60 31 -213 0 -322 -66 -105 -64 -160 -126 -405 -460 -106 -145
-271 -215 -417 -176 -114 30 -183 91 -325 288 -176 243 -249 317 -368 373
-168 80 -373 67 -528 -34 -87 -56 -171 -147 -292 -315 -60 -83 -130 -173 -156
-199 -43 -42 -145 -114 -145 -102 0 3 -10 0 -22 -6 -31 -17 -152 -19 -203 -4
-112 34 -177 95 -328 304 -137 191 -235 292 -334 344 -240 126 -519 64 -704
-154 -25 -30 -91 -117 -146 -194 -56 -77 -122 -162 -148 -188 -43 -43 -122
-98 -150 -104 -5 -1 -24 -6 -42 -11 -17 -6 -64 -9 -103 -7 -147 8 -226 70
-407 319 -64 89 -137 183 -162 210 -49 51 -146 123 -196 145 -94 41 -233 61
-270 40z"/>
<path d="M4408 1325 c-1 -1 -27 -6 -56 -9 -166 -20 -294 -107 -441 -301 -48
-63 -101 -128 -156 -193 -31 -37 -109 -91 -154 -107 -87 -30 -200 -23 -279 19
-50 26 -139 118 -223 231 -197 265 -335 354 -548 353 -103 0 -163 -13 -242
-52 -101 -51 -147 -95 -306 -292 -188 -233 -230 -264 -384 -279 -73 -8 -104
-31 -105 -80 -2 -46 31 -85 73 -86 129 -4 230 24 330 92 61 42 113 98 239 255
186 232 249 276 402 276 115 0 217 -62 320 -196 26 -33 52 -68 59 -76 7 -8 39
-50 73 -92 103 -133 223 -218 348 -248 80 -19 206 -15 282 9 139 44 230 118
380 311 123 156 164 201 226 240 140 88 311 64 434 -61 28 -28 95 -109 148
-178 175 -228 282 -306 451 -329 99 -14 151 13 151 79 0 26 -7 45 -21 58 -21
19 -36 24 -109 36 -105 18 -184 81 -322 258 -57 73 -125 155 -153 183 -98 99
-215 159 -333 170 -31 3 -62 7 -69 9 -6 2 -13 2 -15 0z"/>
</g>
</svg>
